<svg width="96" height="96" viewBox="0 0 96 96" fill="none" xmlns="http://www.w3.org/2000/svg">
<g clip-path="url(#clip0_13_2737)">
<path fill-rule="evenodd" clip-rule="evenodd" d="M39.4745 28.9348C42.2017 28.9348 44.6828 30.5121 45.8402 32.9815L46.7315 34.8832L41.8786 45.2355L38.9896 39.0714C38.6038 38.2483 37.7767 37.7226 36.8677 37.7226H25.9425C25.2954 37.7226 24.7708 38.2471 24.7708 38.8943C24.7708 39.0661 24.8086 39.2359 24.8815 39.3915L36.3661 63.8932H36.3693L43.4965 48.6879L43.4958 48.6861L48.349 38.3339L48.3494 38.3346L50.8587 32.9813C52.0161 30.512 54.4972 28.9348 57.2243 28.9348H79.0979C81.6864 28.9348 83.7847 31.0332 83.7847 33.6216C83.7847 34.3091 83.6335 34.9882 83.3417 35.6108L65.0519 74.6312L65.047 74.6312L65.0412 74.6458C63.9988 77.2356 61.0542 78.49 58.4644 77.4476C57.2064 76.9412 56.2056 75.951 55.6852 74.7009L55.6568 74.6311L49.9668 62.4911L54.8194 52.1385L60.3293 63.8932H60.3797L71.8644 39.3915C72.139 38.8056 71.8867 38.108 71.3007 37.8333C71.1451 37.7604 70.9753 37.7226 70.8034 37.7226H58.3417L41.0416 74.6311C40.012 77.2124 37.0847 78.4703 34.5034 77.4406C33.2445 76.9385 32.2424 75.9502 31.7223 74.7009L31.6939 74.6311L13.4041 35.6108C12.3056 33.267 13.315 30.4764 15.6587 29.3779C16.2812 29.0861 16.9604 28.9348 17.6479 28.9348H39.4745Z" fill="url(#paint0_linear_13_2737)"/>
<path fill-rule="evenodd" clip-rule="evenodd" d="M66.9359 28.9348L66.8515 28.9353C64.0992 28.9677 61.7271 30.5817 60.602 32.9108L60.5683 32.9816L60.5646 32.9792L52.3002 50.6109H42.5947L43.4962 48.6879L43.4955 48.6861L48.3487 38.3339L48.3491 38.3346L50.8584 32.9813C52.0158 30.512 54.4969 28.9348 57.224 28.9348L66.9359 28.9348Z" fill="url(#paint1_linear_13_2737)"/>
<path fill-rule="evenodd" clip-rule="evenodd" d="M79.0942 28.9348C81.6826 28.9348 83.781 31.0332 83.781 33.6216C83.781 34.3091 83.6297 34.9882 83.3379 35.6108L76.2686 50.6928L67.0046 49.7512L71.8606 39.3915C72.1353 38.8056 71.8829 38.108 71.297 37.8333C71.1414 37.7604 70.9716 37.7226 70.7997 37.7226L58.3379 37.7224L60.5612 32.9792L60.5648 32.9816C61.6758 30.6145 64.0679 28.968 66.8481 28.9353L66.9324 28.9348H79.0942Z" fill="url(#paint2_linear_13_2737)" style="mix-blend-mode:multiply"/>
<path fill-rule="evenodd" clip-rule="evenodd" d="M79.0942 28.9348C81.6826 28.9348 83.781 31.0332 83.781 33.6216C83.781 34.3091 83.6297 34.9882 83.3379 35.6108L76.2686 50.6928L67.0046 49.7512L71.8606 39.3915C72.1353 38.8056 71.8829 38.108 71.297 37.8333C71.1414 37.7604 70.9716 37.7226 70.7997 37.7226L58.3379 37.7224L60.5612 32.9792L60.5648 32.9816C61.6758 30.6145 64.0679 28.968 66.8481 28.9353L66.9324 28.9348H79.0942Z" fill="url(#paint3_linear_13_2737)"/>
<path d="M89.6155 20.3296L90.8254 23.7676C91.1137 24.5868 91.7223 25.2539 92.5117 25.6159L94.9542 26.736L92.5117 27.8561C91.7223 28.2181 91.1137 28.8851 90.8254 29.7044L89.6155 33.1424L88.4056 29.7044C88.1173 28.8851 87.5087 28.2181 86.7193 27.8561L84.2769 26.736L86.7193 25.6159C87.5087 25.2539 88.1173 24.5868 88.4056 23.7676L89.6155 20.3296Z" fill="url(#paint4_linear_13_2737)"/>
</g>
<defs>
<linearGradient id="paint0_linear_13_2737" x1="83.5608" y1="77.5054" x2="83.5608" y2="28.9348" gradientUnits="userSpaceOnUse">
<stop stop-color="#FF5100"/>
<stop offset="1" stop-color="#FF1522"/>
</linearGradient>
<linearGradient id="paint1_linear_13_2737" x1="64.123" y1="46.2714" x2="64.123" y2="29.6051" gradientUnits="userSpaceOnUse">
<stop stop-color="#FD7821" stop-opacity="0.01"/>
<stop offset="0.489347" stop-color="#FF5100"/>
<stop offset="1" stop-color="#FF9B27"/>
</linearGradient>
<linearGradient id="paint2_linear_13_2737" x1="82.7559" y1="42.2626" x2="72.6222" y2="24.4462" gradientUnits="userSpaceOnUse">
<stop stop-color="#FD7821" stop-opacity="0.01"/>
<stop offset="1" stop-color="#881000" stop-opacity="0.924541"/>
</linearGradient>
<linearGradient id="paint3_linear_13_2737" x1="96.0192" y1="29.1761" x2="71.3089" y2="52.0561" gradientUnits="userSpaceOnUse">
<stop stop-color="#BE3BCD"/>
<stop offset="1" stop-color="#BE3BCD" stop-opacity="0"/>
</linearGradient>
<linearGradient id="paint4_linear_13_2737" x1="81.9278" y1="28.4443" x2="87.3763" y2="34.0883" gradientUnits="userSpaceOnUse">
<stop stop-color="#FF7217"/>
<stop offset="0.254692" stop-color="#FF347D"/>
<stop offset="1" stop-color="#933FFF"/>
</linearGradient>
<clipPath id="clip0_13_2737">
<rect width="96" height="96" fill="white"/>
</clipPath>
</defs>
</svg>
