<svg width="160" height="33" viewBox="0 0 160 33" fill="none" xmlns="http://www.w3.org/2000/svg">
<path d="M157.102 12.3261V15.702H147.695V12.3261H157.102ZM149.672 8.44531H154.534V22.8434C154.534 23.2569 154.582 23.5791 154.678 23.81C154.774 24.0312 154.938 24.1899 155.168 24.286C155.409 24.3726 155.726 24.4159 156.121 24.4159C156.4 24.4159 156.63 24.4111 156.813 24.4015C156.996 24.3822 157.169 24.3582 157.332 24.3293V27.8062C156.919 27.9409 156.486 28.0418 156.034 28.1092C155.582 28.1861 155.101 28.2246 154.591 28.2246C153.553 28.2246 152.663 28.0611 151.922 27.7341C151.191 27.4071 150.634 26.8925 150.249 26.1904C149.864 25.4883 149.672 24.5746 149.672 23.4493V8.44531Z" fill="#141414"/>
<path d="M143.349 16.1925V27.936H138.487V12.3261H143.032L143.349 16.1925ZM147.966 12.2107L147.879 16.7263C147.687 16.7071 147.427 16.6831 147.1 16.6542C146.773 16.6253 146.499 16.6109 146.278 16.6109C145.71 16.6109 145.22 16.6782 144.806 16.8129C144.402 16.9379 144.065 17.1303 143.796 17.39C143.536 17.64 143.344 17.9574 143.219 18.3422C143.104 18.7269 143.051 19.1741 143.06 19.6839L142.18 19.1068C142.18 18.0584 142.281 17.1062 142.483 16.2503C142.695 15.3846 142.993 14.6392 143.378 14.0141C143.762 13.3793 144.229 12.8936 144.777 12.557C145.325 12.2107 145.941 12.0376 146.624 12.0376C146.864 12.0376 147.1 12.052 147.331 12.0809C147.571 12.1097 147.783 12.153 147.966 12.2107Z" fill="#141414"/>
<path d="M132.333 24.0119V17.5775C132.333 17.1351 132.271 16.7552 132.146 16.4378C132.021 16.1204 131.823 15.8752 131.554 15.702C131.285 15.5193 130.924 15.4279 130.472 15.4279C130.107 15.4279 129.794 15.4904 129.534 15.6155C129.275 15.7405 129.077 15.928 128.943 16.1781C128.808 16.4282 128.741 16.7456 128.741 17.1303H123.879C123.879 16.4089 124.038 15.7405 124.355 15.125C124.682 14.4998 125.144 13.9564 125.74 13.4947C126.346 13.0331 127.067 12.6772 127.904 12.4271C128.75 12.1674 129.693 12.0376 130.732 12.0376C131.972 12.0376 133.079 12.2444 134.05 12.658C135.031 13.0715 135.805 13.6919 136.373 14.519C136.94 15.3365 137.224 16.3657 137.224 17.6064V23.9975C137.224 25.017 137.282 25.7912 137.397 26.3202C137.512 26.8396 137.676 27.2964 137.887 27.6908V27.936H133.011C132.78 27.4551 132.607 26.8684 132.492 26.176C132.386 25.4738 132.333 24.7525 132.333 24.0119ZM132.925 18.3999L132.953 20.9967H130.804C130.352 20.9967 129.967 21.0592 129.65 21.1842C129.342 21.3093 129.092 21.4824 128.9 21.7036C128.717 21.9152 128.582 22.1557 128.496 22.425C128.419 22.6943 128.38 22.978 128.38 23.2761C128.38 23.5647 128.447 23.8244 128.582 24.0552C128.726 24.2764 128.919 24.4495 129.159 24.5746C129.4 24.6996 129.669 24.7621 129.967 24.7621C130.506 24.7621 130.963 24.6611 131.338 24.4592C131.722 24.2476 132.016 23.9927 132.218 23.6945C132.42 23.3964 132.521 23.1175 132.521 22.8578L133.588 24.8487C133.396 25.2334 133.175 25.6229 132.925 26.0173C132.684 26.4116 132.381 26.7771 132.016 27.1137C131.66 27.4407 131.222 27.71 130.703 27.9216C130.184 28.1236 129.554 28.2246 128.813 28.2246C127.851 28.2246 126.966 28.0274 126.158 27.6331C125.36 27.2387 124.721 26.6905 124.24 25.9884C123.759 25.2767 123.518 24.4592 123.518 23.5358C123.518 22.7279 123.663 22.0066 123.951 21.3718C124.249 20.737 124.697 20.1984 125.293 19.756C125.889 19.3136 126.649 18.9769 127.572 18.7461C128.496 18.5153 129.582 18.3999 130.833 18.3999H132.925Z" fill="#141414"/>
<path d="M105.154 15.6299V27.936H100.292V12.3261H104.851L105.154 15.6299ZM104.562 19.5973L103.451 19.6261C103.451 18.5297 103.581 17.5198 103.841 16.5965C104.1 15.6732 104.485 14.8701 104.995 14.1872C105.505 13.5043 106.13 12.9753 106.87 12.6002C107.621 12.2251 108.486 12.0376 109.467 12.0376C110.15 12.0376 110.77 12.1434 111.328 12.355C111.886 12.557 112.367 12.8792 112.771 13.3216C113.175 13.7544 113.483 14.3219 113.694 15.024C113.916 15.7165 114.026 16.5484 114.026 17.5198V27.936H109.164V18.1402C109.164 17.4765 109.087 16.9764 108.933 16.6398C108.789 16.3031 108.578 16.0771 108.299 15.9617C108.02 15.8463 107.678 15.7886 107.274 15.7886C106.851 15.7886 106.471 15.8848 106.135 16.0771C105.798 16.2695 105.509 16.5388 105.269 16.885C105.038 17.2217 104.86 17.6208 104.735 18.0825C104.62 18.5441 104.562 19.0491 104.562 19.5973ZM113.478 19.5973L112.122 19.6261C112.122 18.5297 112.242 17.5198 112.482 16.5965C112.733 15.6732 113.103 14.8701 113.593 14.1872C114.093 13.5043 114.714 12.9753 115.454 12.6002C116.195 12.2251 117.056 12.0376 118.037 12.0376C118.749 12.0376 119.403 12.1434 119.999 12.355C120.595 12.5666 121.11 12.908 121.543 13.3793C121.975 13.8506 122.312 14.4757 122.552 15.2548C122.793 16.0242 122.913 16.9764 122.913 18.1113V27.936H118.037V18.1113C118.037 17.4669 117.96 16.9812 117.806 16.6542C117.662 16.3176 117.45 16.0916 117.171 15.9761C116.892 15.8511 116.56 15.7886 116.176 15.7886C115.714 15.7886 115.315 15.8848 114.978 16.0771C114.642 16.2695 114.358 16.5388 114.127 16.885C113.906 17.2217 113.742 17.6208 113.637 18.0825C113.531 18.5441 113.478 19.0491 113.478 19.5973Z" fill="#141414"/>
<path d="M94.7605 23.5503C94.7605 23.281 94.6691 23.0501 94.4864 22.8578C94.3132 22.6558 94.0055 22.4731 93.5631 22.3095C93.1206 22.1364 92.5003 21.9633 91.702 21.7902C90.9422 21.6267 90.2256 21.4103 89.5524 21.141C88.8887 20.8717 88.3069 20.5447 87.8067 20.1599C87.3066 19.7752 86.9123 19.3184 86.6237 18.7894C86.3448 18.2604 86.2053 17.6545 86.2053 16.9716C86.2053 16.308 86.3448 15.6828 86.6237 15.0961C86.9123 14.4998 87.3306 13.9756 87.8789 13.5236C88.4367 13.0619 89.1148 12.7012 89.913 12.4416C90.7113 12.1722 91.6202 12.0376 92.6397 12.0376C94.0439 12.0376 95.2558 12.254 96.2753 12.6868C97.2948 13.11 98.0787 13.7063 98.6269 14.4757C99.1847 15.2356 99.4636 16.1156 99.4636 17.1159H94.6018C94.6018 16.7215 94.5345 16.3849 94.3998 16.106C94.2748 15.8271 94.068 15.6155 93.7795 15.4712C93.4909 15.3173 93.1062 15.2404 92.6253 15.2404C92.2887 15.2404 91.9809 15.3029 91.702 15.4279C91.4327 15.553 91.2163 15.7261 91.0528 15.9473C90.8893 16.1685 90.8075 16.4282 90.8075 16.7263C90.8075 16.9379 90.8556 17.1303 90.9518 17.3034C91.0576 17.4669 91.2163 17.6208 91.4279 17.7651C91.6395 17.8997 91.9088 18.0248 92.2358 18.1402C92.5628 18.246 92.9571 18.3422 93.4188 18.4287C94.4671 18.6211 95.4482 18.8952 96.3619 19.251C97.2756 19.6069 98.0162 20.1118 98.5836 20.7659C99.1607 21.4199 99.4492 22.2999 99.4492 23.406C99.4492 24.0985 99.2905 24.7381 98.9731 25.3248C98.6557 25.9018 98.1989 26.4116 97.6026 26.854C97.0063 27.2868 96.2897 27.6235 95.453 27.8639C94.6162 28.1043 93.6737 28.2246 92.6253 28.2246C91.1345 28.2246 89.8746 27.9601 88.8455 27.4311C87.8163 26.8925 87.0373 26.2192 86.5083 25.4113C85.9889 24.5938 85.7292 23.7667 85.7292 22.9299H90.2593C90.2785 23.4108 90.3939 23.8051 90.6055 24.1129C90.8267 24.4207 91.1201 24.6467 91.4856 24.791C91.8511 24.9352 92.2742 25.0074 92.7551 25.0074C93.1976 25.0074 93.5631 24.9449 93.8516 24.8198C94.1497 24.6948 94.3758 24.5265 94.5296 24.3149C94.6835 24.0937 94.7605 23.8388 94.7605 23.5503Z" fill="#141414"/>
<path d="M85.056 5.77588V27.9356H80.1797V5.77588H85.056Z" fill="#141414"/>
<path d="M64.1716 20.2898V19.9868C64.1716 18.8423 64.3351 17.7891 64.6621 16.8273C64.9892 15.8559 65.4701 15.0143 66.1048 14.3026C66.7396 13.5909 67.5235 13.0379 68.4564 12.6435C69.3894 12.2396 70.4666 12.0376 71.688 12.0376C72.9191 12.0376 74.0012 12.2396 74.9341 12.6435C75.8767 13.0379 76.6653 13.5909 77.3001 14.3026C77.9349 15.0143 78.4158 15.8559 78.7428 16.8273C79.0698 17.7891 79.2333 18.8423 79.2333 19.9868V20.2898C79.2333 21.4247 79.0698 22.4779 78.7428 23.4493C78.4158 24.4111 77.9349 25.2526 77.3001 25.974C76.6653 26.6857 75.8815 27.2387 74.9485 27.6331C74.0156 28.0274 72.9384 28.2246 71.7169 28.2246C70.4954 28.2246 69.4134 28.0274 68.4708 27.6331C67.5283 27.2387 66.7396 26.6857 66.1048 25.974C65.4701 25.2526 64.9892 24.4111 64.6621 23.4493C64.3351 22.4779 64.1716 21.4247 64.1716 20.2898ZM69.0335 19.9868V20.2898C69.0335 20.8765 69.0768 21.4247 69.1633 21.9344C69.2499 22.4442 69.3942 22.8914 69.5961 23.2761C69.7981 23.6512 70.0722 23.9446 70.4185 24.1562C70.7647 24.3678 71.1975 24.4736 71.7169 24.4736C72.2266 24.4736 72.6498 24.3678 72.9865 24.1562C73.3327 23.9446 73.6068 23.6512 73.8088 23.2761C74.0108 22.8914 74.155 22.4442 74.2416 21.9344C74.3282 21.4247 74.3714 20.8765 74.3714 20.2898V19.9868C74.3714 19.4194 74.3282 18.8856 74.2416 18.3854C74.155 17.8757 74.0108 17.4284 73.8088 17.0437C73.6068 16.6494 73.3327 16.3416 72.9865 16.1204C72.6402 15.8992 72.2074 15.7886 71.688 15.7886C71.1783 15.7886 70.7503 15.8992 70.404 16.1204C70.0674 16.3416 69.7981 16.6494 69.5961 17.0437C69.3942 17.4284 69.2499 17.8757 69.1633 18.3854C69.0768 18.8856 69.0335 19.4194 69.0335 19.9868Z" fill="#141414"/>
<path d="M49.0286 20.2898V19.9868C49.0286 18.8423 49.1921 17.7891 49.5191 16.8273C49.8461 15.8559 50.327 15.0143 50.9618 14.3026C51.5966 13.5909 52.3804 13.0379 53.3134 12.6435C54.2463 12.2396 55.3235 12.0376 56.545 12.0376C57.7761 12.0376 58.8581 12.2396 59.791 12.6435C60.7336 13.0379 61.5223 13.5909 62.157 14.3026C62.7918 15.0143 63.2727 15.8559 63.5997 16.8273C63.9267 17.7891 64.0902 18.8423 64.0902 19.9868V20.2898C64.0902 21.4247 63.9267 22.4779 63.5997 23.4493C63.2727 24.4111 62.7918 25.2526 62.157 25.974C61.5223 26.6857 60.7384 27.2387 59.8055 27.6331C58.8725 28.0274 57.7953 28.2246 56.5738 28.2246C55.3524 28.2246 54.2703 28.0274 53.3278 27.6331C52.3852 27.2387 51.5966 26.6857 50.9618 25.974C50.327 25.2526 49.8461 24.4111 49.5191 23.4493C49.1921 22.4779 49.0286 21.4247 49.0286 20.2898ZM53.8904 19.9868V20.2898C53.8904 20.8765 53.9337 21.4247 54.0203 21.9344C54.1068 22.4442 54.2511 22.8914 54.4531 23.2761C54.6551 23.6512 54.9292 23.9446 55.2754 24.1562C55.6217 24.3678 56.0545 24.4736 56.5738 24.4736C57.0836 24.4736 57.5068 24.3678 57.8434 24.1562C58.1896 23.9446 58.4638 23.6512 58.6657 23.2761C58.8677 22.8914 59.012 22.4442 59.0985 21.9344C59.1851 21.4247 59.2284 20.8765 59.2284 20.2898V19.9868C59.2284 19.4194 59.1851 18.8856 59.0985 18.3854C59.012 17.8757 58.8677 17.4284 58.6657 17.0437C58.4638 16.6494 58.1896 16.3416 57.8434 16.1204C57.4972 15.8992 57.0643 15.7886 56.545 15.7886C56.0352 15.7886 55.6072 15.8992 55.261 16.1204C54.9244 16.3416 54.6551 16.6494 54.4531 17.0437C54.2511 17.4284 54.1068 17.8757 54.0203 18.3854C53.9337 18.8856 53.8904 19.4194 53.8904 19.9868Z" fill="#141414"/>
<path d="M45.9053 6.93018V27.9357H40.8415V6.93018H45.9053ZM52.2243 6.93018V10.8399H34.6667V6.93018H52.2243Z" fill="#141414"/>
<path d="M2.95739 18.0071L12.9208 0.750054L16.4043 6.145L6.4409 23.4021L2.95739 18.0071Z" fill="#141414"/>
<path d="M30.1832 15.4211L14.1338 14.6481L17.0276 9.63597L26.6997 10.0262L30.1832 15.4211Z" fill="#5A565F"/>
<path d="M30.1832 15.4211L20.2199 32.6782L16.7364 27.2832L26.6997 10.0262L30.1832 15.4211Z" fill="#141414"/>
<path d="M2.95739 18.0071L19.0068 18.7801L16.1131 23.7923L6.4409 23.4021L2.95739 18.0071Z" fill="#5A565F"/>
</svg>
